<?xml version="1.0" encoding="utf-8"?>
<!DOCTYPE svg PUBLIC "-//W3C//DTD SVG 1.1//EN" "http://www.w3.org/Graphics/SVG/1.1/DTD/svg11.dtd">
<svg version="1.1" id="Warstwa_1" xmlns="http://www.w3.org/2000/svg" xmlns:xlink="http://www.w3.org/1999/xlink" x="0px" y="0px"
	 width="51.3px" height="33.901px" viewBox="0 0 51.3 33.901" enable-background="new 0 0 51.3 33.901" xml:space="preserve">
<path fill="#918D90" d="M9.156,10.633c0.688-0.299,0.999-1.097,0.71-1.775C9.568,8.17,8.769,7.856,8.08,8.145
	C7.572,8.375,7.271,8.86,7.269,9.381c0,0.184,0.038,0.373,0.114,0.554C7.681,10.61,8.471,10.928,9.156,10.633 M9.933,21.663
	c-0.299-0.688-1.1-1.002-1.784-0.708c-0.505,0.229-0.811,0.714-0.811,1.23c-0.002,0.181,0.039,0.371,0.115,0.55
	c0.287,0.682,1.089,0.996,1.773,0.698C9.91,23.137,10.228,22.348,9.933,21.663 M11.725,11.481c0.736,0.084,1.405-0.455,1.489-1.187
	c0.004-0.049,0.008-0.097,0.008-0.144c0.002-0.686-0.516-1.282-1.208-1.352c-0.752-0.08-1.406,0.454-1.489,1.202
	C10.446,10.738,10.983,11.399,11.725,11.481 M6.764,21.356c0.001-0.683-0.513-1.278-1.206-1.354
	c-0.753-0.072-1.404,0.454-1.486,1.208c-0.078,0.735,0.458,1.398,1.199,1.481c0.738,0.08,1.41-0.46,1.485-1.188
	C6.758,21.445,6.762,21.401,6.764,21.356 M13.477,13.583c0.609,0.432,1.451,0.286,1.875-0.323c0.168-0.243,0.254-0.514,0.256-0.782
	c0-0.428-0.199-0.839-0.578-1.105c-0.623-0.428-1.451-0.289-1.887,0.336C12.717,12.309,12.864,13.154,13.477,13.583 M4.46,18.962
	c0.001-0.418-0.195-0.845-0.571-1.11C3.265,17.43,2.434,17.572,2,18.188c-0.427,0.61-0.279,1.454,0.333,1.887
	c0.613,0.421,1.453,0.276,1.883-0.328C4.377,19.509,4.459,19.233,4.46,18.962 M15.518,20.336c0.5-0.224,0.797-0.721,0.797-1.239
	c0.002-0.187-0.041-0.375-0.117-0.557c-0.316-0.683-1.105-0.979-1.793-0.668c-0.676,0.304-0.982,1.108-0.676,1.783
	C14.043,20.338,14.842,20.641,15.518,20.336 M14.417,21.184c-0.668,0.306-0.975,1.106-0.668,1.781
	c0.309,0.679,1.107,0.982,1.781,0.677c0.5-0.225,0.797-0.718,0.799-1.237c0-0.183-0.031-0.373-0.113-0.552
	C15.893,21.167,15.102,20.874,14.417,21.184 M14.26,24.367c-0.695,0.246-1.059,1.022-0.813,1.727c0.258,0.696,1.023,1.07,1.721,0.82
	c0.555-0.197,0.906-0.724,0.908-1.279c0-0.153-0.023-0.298-0.08-0.452C15.735,24.467,14.971,24.118,14.26,24.367 M2.728,17.049
	c0.497-0.229,0.798-0.721,0.799-1.239c0.002-0.184-0.039-0.375-0.116-0.555c-0.319-0.684-1.109-0.981-1.794-0.671
	c-0.673,0.307-0.973,1.109-0.673,1.785C1.255,17.046,2.056,17.354,2.728,17.049 M11.965,20.03c-0.425-0.027-0.863,0.147-1.157,0.508
	c-0.457,0.589-0.364,1.429,0.224,1.898c0.582,0.462,1.433,0.372,1.901-0.215c0.459-0.581,0.365-1.427-0.205-1.889
	C12.495,20.146,12.235,20.053,11.965,20.03 M2.886,14.009c0.752,0.078,1.422-0.453,1.509-1.2c0.006-0.045,0.008-0.088,0.008-0.136
	c0.002-0.68-0.513-1.274-1.204-1.358c-0.733-0.079-1.4,0.451-1.489,1.188C1.625,13.245,2.155,13.916,2.886,14.009 M14.168,27.504
	c-0.674-0.337-1.486-0.058-1.821,0.611c-0.092,0.189-0.137,0.386-0.138,0.583c-0.001,0.502,0.276,0.988,0.755,1.229
	c0.672,0.331,1.477,0.049,1.811-0.625C15.102,28.643,14.831,27.829,14.168,27.504 M10.329,29.82
	c-0.38,0.261-0.587,0.679-0.588,1.106c-0.002,0.271,0.073,0.536,0.233,0.775c0.422,0.613,1.262,0.765,1.878,0.354
	c0.614-0.422,0.774-1.261,0.367-1.869C11.799,29.567,10.954,29.402,10.329,29.82 M7.839,30.561
	c-0.711,0.065-1.224,0.642-1.227,1.341c0,0.042,0,0.091,0.003,0.127c0.074,0.743,0.731,1.288,1.479,1.224
	c0.738-0.069,1.282-0.728,1.216-1.466C9.242,31.045,8.582,30.489,7.839,30.561 M6.506,11.131c0.18-0.254,0.263-0.529,0.263-0.806
	C6.771,9.908,6.582,9.499,6.221,9.23C5.627,8.787,4.774,8.919,4.328,9.515c-0.439,0.604-0.316,1.449,0.275,1.888
	C5.206,11.846,6.056,11.722,6.506,11.131 M42.307,21.067c-0.688-0.294-1.486,0.018-1.781,0.698
	c-0.301,0.695,0.008,1.479,0.699,1.785c0.684,0.293,1.484-0.026,1.779-0.718c0.076-0.162,0.111-0.34,0.111-0.519
	C43.116,21.792,42.811,21.292,42.307,21.067 M42.624,8.276c-0.691-0.285-1.488,0.037-1.768,0.722
	c-0.293,0.705,0.018,1.486,0.715,1.777c0.693,0.29,1.488-0.048,1.779-0.732c0.074-0.172,0.098-0.34,0.098-0.512
	C43.45,9.006,43.135,8.493,42.624,8.276 M44.866,20.096c-0.746,0.095-1.273,0.774-1.186,1.507c0.096,0.747,0.75,1.276,1.5,1.18
	c0.695-0.08,1.191-0.667,1.193-1.343c0-0.053-0.002-0.113-0.006-0.168C46.274,20.545,45.6,20.013,44.866,20.096 M38.583,8.871
	c-0.744,0.093-1.275,0.766-1.188,1.501c0.094,0.758,0.758,1.269,1.504,1.186c0.688-0.083,1.188-0.668,1.191-1.34
	c0-0.054,0-0.115-0.008-0.172C39.985,9.312,39.315,8.784,38.583,8.871 M46.643,17.975c-0.607,0.442-0.742,1.288-0.307,1.885
	c0.443,0.61,1.266,0.75,1.885,0.308c0.367-0.263,0.559-0.675,0.561-1.092c0-0.279-0.082-0.563-0.258-0.81
	C48.092,17.674,47.245,17.539,46.643,17.975 M37.051,13.611c0.357-0.261,0.555-0.676,0.557-1.097c0-0.277-0.082-0.561-0.258-0.797
	c-0.438-0.598-1.279-0.733-1.881-0.305c-0.607,0.443-0.746,1.291-0.311,1.883C35.604,13.914,36.434,14.048,37.051,13.611
	 M48.891,14.561c-0.672-0.294-1.479,0.025-1.771,0.7c-0.297,0.683,0.014,1.481,0.691,1.777c0.699,0.3,1.48-0.005,1.787-0.687
	c0.076-0.18,0.109-0.358,0.109-0.534C49.709,15.289,49.407,14.79,48.891,14.561 M48.84,11.245c-0.684-0.299-1.479,0.021-1.775,0.697
	c-0.297,0.683,0.01,1.484,0.693,1.777c0.689,0.302,1.473-0.006,1.783-0.685c0.072-0.178,0.113-0.362,0.115-0.537
	C49.657,11.966,49.352,11.467,48.84,11.245 M48.782,7.748c-0.68-0.293-1.473,0.023-1.77,0.702c-0.301,0.688,0.014,1.484,0.693,1.784
	c0.689,0.296,1.479-0.01,1.779-0.695c0.07-0.173,0.111-0.356,0.113-0.535C49.6,8.478,49.29,7.971,48.782,7.748 M48.631,4.39
	c-0.707-0.24-1.475,0.141-1.713,0.841c-0.24,0.708,0.131,1.477,0.834,1.72c0.715,0.24,1.475-0.122,1.719-0.838
	c0.049-0.14,0.076-0.287,0.076-0.436C49.549,5.109,49.19,4.58,48.631,4.39 M47.588,3.586c0.697,0.301,1.48-0.004,1.787-0.69
	c0.078-0.171,0.115-0.354,0.115-0.53c0.002-0.529-0.301-1.036-0.82-1.26c-0.676-0.289-1.475,0.022-1.77,0.706
	C46.604,2.496,46.918,3.293,47.588,3.586 M36.489,16.328c0.074-0.17,0.115-0.351,0.115-0.533c0.002-0.528-0.307-1.03-0.82-1.254
	c-0.678-0.292-1.475,0.026-1.768,0.704c-0.299,0.688,0.008,1.48,0.689,1.779C35.401,17.319,36.188,17.02,36.489,16.328
	 M37.487,18.848c-0.098-0.745-0.77-1.277-1.514-1.185c-0.68,0.074-1.186,0.662-1.186,1.333c0,0.049-0.004,0.106,0.006,0.154
	c0.088,0.741,0.754,1.279,1.49,1.194C37.042,20.257,37.561,19.6,37.487,18.848 M37.688,20.298c-0.348,0.262-0.535,0.67-0.535,1.081
	c-0.002,0.279,0.08,0.564,0.262,0.804c0.445,0.598,1.297,0.728,1.887,0.282c0.602-0.449,0.732-1.281,0.285-1.891
	C39.143,19.975,38.288,19.849,37.688,20.298 M46.145,11.59c0.146-0.111,0.26-0.242,0.346-0.384c0.277-0.461,0.258-1.056-0.076-1.507
	c-0.449-0.594-1.299-0.716-1.893-0.276c-0.6,0.461-0.721,1.294-0.273,1.902C44.698,11.92,45.553,12.038,46.145,11.59 M24.967,8.171
	c-0.535,0.212-0.854,0.713-0.855,1.251c0,0.164,0.027,0.338,0.09,0.504c0.27,0.687,1.051,1.032,1.744,0.769
	c0.691-0.274,1.039-1.055,0.775-1.743C26.45,8.249,25.667,7.908,24.967,8.171 M29.913,10.297c0.014-0.064,0.018-0.131,0.018-0.198
	c0.004-0.661-0.482-1.249-1.146-1.343c-0.746-0.104-1.43,0.408-1.541,1.144c-0.105,0.732,0.4,1.417,1.141,1.528
	C29.118,11.53,29.809,11.031,29.913,10.297 M31.655,13.371c0.188-0.244,0.277-0.539,0.277-0.821c0.002-0.407-0.18-0.815-0.529-1.08
	c-0.605-0.454-1.436-0.345-1.896,0.26c-0.449,0.587-0.334,1.438,0.26,1.892C30.358,14.075,31.204,13.95,31.655,13.371
	 M30.657,14.393c-0.689,0.28-1.021,1.069-0.744,1.757c0.283,0.691,1.074,1.023,1.756,0.752c0.533-0.22,0.85-0.731,0.85-1.259
	c0.002-0.173-0.027-0.345-0.094-0.51C32.133,14.438,31.358,14.111,30.657,14.393 M30.641,17.673
	c-0.682,0.296-0.996,1.095-0.695,1.773c0.299,0.681,1.098,0.993,1.777,0.7c0.508-0.219,0.816-0.718,0.816-1.244
	c0-0.179-0.043-0.366-0.115-0.537C32.116,17.675,31.331,17.367,30.641,17.673 M30.588,21.006c-0.684,0.296-0.994,1.092-0.693,1.78
	c0.295,0.669,1.094,0.987,1.77,0.697c0.512-0.22,0.818-0.723,0.818-1.25c0.002-0.177-0.033-0.36-0.111-0.538
	C32.067,21.011,31.278,20.7,30.588,21.006 M18.987,17.684c-0.674,0.306-0.971,1.108-0.67,1.785c0.307,0.681,1.113,0.982,1.783,0.681
	c0.5-0.23,0.801-0.724,0.801-1.236c0.002-0.183-0.037-0.375-0.123-0.56C20.469,17.67,19.678,17.382,18.987,17.684 M18.979,21.068
	c-0.676,0.305-0.973,1.111-0.672,1.789c0.309,0.676,1.113,0.979,1.785,0.676c0.5-0.228,0.801-0.721,0.801-1.238
	c0-0.183-0.039-0.374-0.123-0.559C20.458,21.056,19.668,20.755,18.979,21.068 M19.042,14.273c-0.678,0.286-1.01,1.075-0.73,1.764
	c0.275,0.69,1.064,1.023,1.748,0.746c0.525-0.206,0.852-0.724,0.852-1.261c0-0.164-0.031-0.339-0.096-0.5
	C20.524,14.322,19.745,14,19.042,14.273 M19.016,7.53c-0.674,0.308-0.973,1.106-0.672,1.788c0.309,0.676,1.111,0.984,1.785,0.678
	c0.498-0.222,0.801-0.723,0.801-1.234c0.002-0.188-0.037-0.378-0.123-0.56C20.497,7.52,19.706,7.222,19.016,7.53 M19.006,10.919
	c-0.676,0.304-0.973,1.103-0.672,1.784c0.309,0.677,1.113,0.979,1.785,0.681c0.498-0.228,0.799-0.723,0.803-1.244
	c0-0.186-0.039-0.374-0.123-0.552C20.485,10.9,19.696,10.607,19.006,10.919 M19.071,4.126c-0.678,0.277-1.01,1.064-0.73,1.761
	c0.275,0.689,1.063,1.026,1.748,0.739c0.529-0.204,0.85-0.716,0.852-1.255c0-0.164-0.033-0.34-0.098-0.502
	C20.553,4.169,19.772,3.841,19.071,4.126 M19.081,0.742c-0.68,0.278-1.012,1.067-0.73,1.761c0.275,0.691,1.063,1.023,1.748,0.743
	c0.529-0.207,0.85-0.717,0.85-1.257c0-0.165-0.031-0.339-0.098-0.502C20.561,0.787,19.788,0.459,19.081,0.742 M21.362,9.621
	c-0.469,0.574-0.385,1.43,0.193,1.89c0.588,0.478,1.438,0.384,1.904-0.197c0.207-0.256,0.309-0.549,0.309-0.848
	c0-0.394-0.174-0.784-0.516-1.055C22.68,8.946,21.827,9.04,21.362,9.621 M14.538,14.392c-0.67,0.302-0.971,1.102-0.668,1.785
	c0.313,0.675,1.111,0.976,1.783,0.673c0.508-0.222,0.801-0.726,0.801-1.236c0.002-0.187-0.037-0.373-0.115-0.558
	C16.02,14.374,15.227,14.075,14.538,14.392"/>
</svg>
