<?xml version="1.0" encoding="utf-8"?>
<!DOCTYPE svg PUBLIC "-//W3C//DTD SVG 1.1//EN" "http://www.w3.org/Graphics/SVG/1.1/DTD/svg11.dtd">
<svg version="1.1" id="Warstwa_1" xmlns="http://www.w3.org/2000/svg" xmlns:xlink="http://www.w3.org/1999/xlink" x="0px" y="0px"
	 width="61.1px" height="33px" viewBox="0 0 61.1 33" enable-background="new 0 0 61.1 33" xml:space="preserve">
<path fill-rule="evenodd" clip-rule="evenodd" fill="#918D90" d="M5.193,28.305c0-0.896-0.651-1.644-1.74-1.644H1.409v5.272h1.029
	v-1.983h1.015C4.542,29.951,5.193,29.202,5.193,28.305 M4.164,28.305c0,0.431-0.296,0.719-0.763,0.719H2.438V27.58h0.963
	C3.868,27.58,4.164,27.876,4.164,28.305"/>
<path fill-rule="evenodd" clip-rule="evenodd" fill="#918D90" d="M10.646,31.934l-1.177-2.273c0.511-0.185,0.963-0.644,0.963-1.385
	c0-0.881-0.637-1.615-1.711-1.615H6.654v5.273h1.03v-2.103h0.74l1.03,2.103H10.646z M9.402,28.276c0,0.407-0.296,0.696-0.748,0.696
	h-0.97v-1.392h0.97C9.106,27.581,9.402,27.87,9.402,28.276"/>
<path fill-rule="evenodd" clip-rule="evenodd" fill="#918D90" d="M15.809,29.298c0-0.911,0.008-1.57-0.526-2.103
	c-0.37-0.371-0.821-0.579-1.421-0.579c-0.601,0-1.06,0.208-1.43,0.579c-0.533,0.532-0.518,1.191-0.518,2.103
	s-0.015,1.569,0.518,2.103c0.37,0.371,0.829,0.578,1.43,0.578c0.6,0,1.051-0.207,1.421-0.578
	C15.817,30.868,15.809,30.209,15.809,29.298 M14.78,29.298c0,1.015-0.059,1.259-0.259,1.481c-0.148,0.17-0.378,0.281-0.659,0.281
	c-0.282,0-0.519-0.111-0.667-0.281c-0.2-0.223-0.252-0.467-0.252-1.481s0.052-1.259,0.252-1.481c0.148-0.17,0.385-0.281,0.667-0.281
	c0.281,0,0.511,0.111,0.659,0.281C14.721,28.04,14.78,28.284,14.78,29.298"/>
<polygon fill-rule="evenodd" clip-rule="evenodd" fill="#918D90" points="20.927,27.581 20.927,26.662 17.454,26.662 17.454,31.934 
	18.482,31.934 18.482,29.793 20.564,29.793 20.564,28.875 18.482,28.875 18.482,27.581 "/>
<polygon fill-rule="evenodd" clip-rule="evenodd" fill="#918D90" points="25.89,31.934 25.89,31.016 23.445,31.016 23.445,29.735 
	25.527,29.735 25.527,28.817 23.445,28.817 23.445,27.581 25.89,27.581 25.89,26.662 22.416,26.662 22.416,31.934 "/>
<path fill-rule="evenodd" clip-rule="evenodd" fill="#918D90" d="M30.898,30.379c0-0.466-0.125-0.852-0.406-1.118
	c-0.223-0.208-0.527-0.341-1.008-0.407l-0.623-0.089c-0.213-0.03-0.385-0.11-0.488-0.208c-0.111-0.104-0.156-0.244-0.156-0.377
	c0-0.363,0.268-0.667,0.816-0.667c0.348,0,0.748,0.045,1.08,0.363l0.652-0.644c-0.451-0.438-0.979-0.616-1.703-0.616
	c-1.141,0-1.838,0.659-1.838,1.6c0,0.443,0.127,0.785,0.379,1.037c0.236,0.229,0.57,0.37,1.021,0.438l0.637,0.088
	c0.244,0.037,0.363,0.088,0.467,0.185c0.111,0.104,0.162,0.26,0.162,0.444c0,0.423-0.324,0.652-0.932,0.652
	c-0.49,0-0.941-0.111-1.275-0.445l-0.666,0.668c0.52,0.525,1.125,0.695,1.926,0.695C30.046,31.979,30.898,31.401,30.898,30.379"/>
<path fill-rule="evenodd" clip-rule="evenodd" fill="#918D90" d="M35.869,30.379c0-0.466-0.125-0.852-0.408-1.118
	c-0.223-0.208-0.525-0.341-1.006-0.407l-0.623-0.089c-0.213-0.03-0.385-0.11-0.488-0.208c-0.111-0.104-0.156-0.244-0.156-0.377
	c0-0.363,0.268-0.667,0.814-0.667c0.348,0,0.748,0.045,1.082,0.363l0.65-0.644c-0.449-0.438-0.977-0.616-1.701-0.616
	c-1.143,0-1.838,0.659-1.838,1.6c0,0.443,0.125,0.785,0.377,1.037c0.238,0.229,0.57,0.37,1.023,0.438l0.637,0.088
	c0.244,0.037,0.363,0.088,0.467,0.185c0.111,0.104,0.162,0.26,0.162,0.444c0,0.423-0.324,0.652-0.934,0.652
	c-0.488,0-0.939-0.111-1.273-0.445l-0.666,0.668c0.518,0.525,1.125,0.695,1.926,0.695C35.017,31.979,35.869,31.401,35.869,30.379"/>
<rect x="37.433" y="26.662" fill-rule="evenodd" clip-rule="evenodd" fill="#918D90" width="1.027" height="5.273"/>
<path fill-rule="evenodd" clip-rule="evenodd" fill="#918D90" d="M44.001,29.298c0-0.911,0.008-1.57-0.525-2.103
	c-0.371-0.371-0.822-0.579-1.422-0.579s-1.059,0.208-1.43,0.579c-0.533,0.532-0.518,1.191-0.518,2.103s-0.016,1.569,0.518,2.103
	c0.371,0.371,0.83,0.578,1.43,0.578s1.051-0.207,1.422-0.578C44.009,30.868,44.001,30.209,44.001,29.298 M42.972,29.298
	c0,1.015-0.059,1.259-0.258,1.481c-0.148,0.17-0.379,0.281-0.66,0.281s-0.518-0.111-0.666-0.281
	c-0.201-0.223-0.252-0.467-0.252-1.481s0.051-1.259,0.252-1.481c0.148-0.17,0.385-0.281,0.666-0.281s0.512,0.111,0.66,0.281
	C42.914,28.04,42.972,28.284,42.972,29.298"/>
<polygon fill-rule="evenodd" clip-rule="evenodd" fill="#918D90" points="49.683,31.934 49.683,26.662 48.652,26.662 48.652,29.891 
	46.564,26.662 45.646,26.662 45.646,31.934 46.675,31.934 46.675,28.699 48.765,31.934 "/>
<path fill-rule="evenodd" clip-rule="evenodd" fill="#918D90" d="M55.58,31.934l-1.926-5.273h-0.807l-1.918,5.273h1.074l0.318-0.933
	h1.873l0.311,0.933H55.58z M53.921,30.135h-1.313l0.668-1.918L53.921,30.135z"/>
<polygon fill-rule="evenodd" clip-rule="evenodd" fill="#918D90" points="60.248,31.934 60.248,31.016 57.855,31.016 57.855,26.662 
	56.826,26.662 56.826,31.934 "/>
<path fill-rule="evenodd" clip-rule="evenodd" fill="#918D90" d="M15.658,22.504c-2.49,0-5.791-1.533-5.791-5.701
	s3.341-5.702,5.791-5.702c2.535,0,5.791,1.534,5.791,5.702S18.213,22.504,15.658,22.504 M15.658,11.995
	c-2.517,0-3.396,2.478-3.396,4.808c0,2.341,0.86,4.808,3.396,4.808c2.504,0,3.396-2.42,3.396-4.808
	C19.054,14.409,18.104,11.995,15.658,11.995"/>
<path fill-rule="evenodd" clip-rule="evenodd" fill="#918D90" d="M57.304,11.941c-0.004-0.391,0.197-0.585,0.586-0.585h1.039
	c0.391,0,0.586,0.196,0.586,0.586v9.743c0,0.39-0.195,0.585-0.584,0.585H57.89c-0.389,0-0.588-0.194-0.586-0.583l0.01-1.357
	c-0.543,0.952-1.717,2.147-3.965,2.147c-2.498,0-5.074-1.697-5.074-5.607c0-3.867,2.799-5.742,5.367-5.742
	c1.641,0,2.855,0.522,3.678,1.914L57.304,11.941z M53.982,12.185c-2.256,0-3.301,2.335-3.301,4.82c0,3.347,1.703,4.432,3.229,4.432
	c2.447,0,3.457-2.499,3.457-4.799C57.367,13.884,56.167,12.185,53.982,12.185"/>
<path fill="#918D90" d="M9.946,21.687c0,0.39-0.193,0.584-0.584,0.584H1.896c-0.388,0-0.583-0.195-0.583-0.583V7.188
	c0-0.391,0.194-0.585,0.585-0.585h1.361c0.39,0,0.584,0.195,0.584,0.585v13.472c0,0.175,0.119,0.292,0.295,0.292h5.224
	c0.391,0,0.584,0.195,0.584,0.584V21.687z"/>
<path fill="#918D90" d="M33.277,21.686c0,0.39-0.195,0.585-0.586,0.585h-1.063c-0.389,0-0.586-0.196-0.586-0.584v-6.009
	c0-2.21-0.934-3.211-2.443-3.211c-2.082,0-3.023,1.456-3.023,3.427v5.792c0,0.39-0.195,0.585-0.584,0.585h-1.064
	c-0.389,0-0.584-0.194-0.584-0.585v-9.745c0-0.39,0.195-0.584,0.586-0.584h0.957c0.391,0,0.588,0.195,0.586,0.584l-0.008,1.09
	c0.777-1.1,2.105-1.902,3.869-1.902c1.822,0,3.943,0.826,3.943,3.991V21.686z"/>
<path fill="#918D90" d="M37.447,16.831c0,3.172,1.5,4.787,3.48,4.787c2.738,0,3.553-2.928,3.553-5.039
	c0-3.019-1.533-6.488-1.533-9.976c0-2.228,0.754-4.268,3.354-5.662c0.098-0.053,0.188,0.039,0.1,0.133
	c-0.898,0.943-1.375,2.385-1.375,4.185c0,3.909,1.732,7.467,1.732,10.988c0,2.615-1.471,6.23-5.877,6.23
	c-3.162,0-5.82-1.889-5.82-5.613c0-3.575,2.904-5.735,5.74-5.735c0.455,0,0.979,0.074,1.293,0.16c0.34,0.092,0.25,0.516-0.061,0.5
	C39.164,11.637,37.447,14.265,37.447,16.831"/>
</svg>
