<?xml version="1.0" encoding="utf-8"?>
<!DOCTYPE svg PUBLIC "-//W3C//DTD SVG 1.1//EN" "http://www.w3.org/Graphics/SVG/1.1/DTD/svg11.dtd">
<svg version="1.1" id="Warstwa_1" xmlns="http://www.w3.org/2000/svg" xmlns:xlink="http://www.w3.org/1999/xlink" x="0px" y="0px"
	 width="85.098px" height="20.196px" viewBox="0 0 85.098 20.196" enable-background="new 0 0 85.098 20.196" xml:space="preserve">
<path fill="#918D90" d="M15.689,13.93c0,0.736,0,3.752,0.067,4.315c-0.176,0.271-0.487,0.368-0.751,0.345
	c-0.357-0.515-0.999-1.35-2.599-3.36L7.216,8.681C5.795,6.868,5.063,5.962,4.685,5.594c-0.066,0-0.066,0.27-0.066,1.569v4.782
	c0,1.839,0.021,4.094,0.397,4.83c0.202,0.367,0.58,0.539,1.129,0.611l0.492,0.074c0.203,0.172,0.175,0.64-0.044,0.711
	c-0.82-0.047-1.687-0.071-2.531-0.071c-0.93,0-1.532,0.024-2.303,0.071c-0.182-0.125-0.226-0.539-0.048-0.711l0.488-0.123
	c0.42-0.098,0.816-0.172,0.978-0.563c0.287-0.762,0.287-2.895,0.287-4.83V6.132c0-1.912,0.023-2.304-0.73-3.015
	c-0.246-0.222-0.866-0.415-1.18-0.492l-0.33-0.071C1.067,2.406,1.091,1.917,1.311,1.842C2.155,1.939,3.375,1.917,3.93,1.917
	c0.465,0,0.999-0.024,1.531-0.074c0.381,1.053,2.798,4.143,3.573,5.077l2.218,2.646c0.934,1.127,2.995,3.728,3.218,3.875
	c0.067-0.073,0.067-0.194,0.067-0.587V8.07c0-1.839-0.023-4.095-0.423-4.832c-0.196-0.366-0.556-0.536-1.108-0.613l-0.513-0.071
	c-0.197-0.172-0.177-0.638,0.047-0.712c0.864,0.05,1.686,0.074,2.553,0.074c0.954,0,1.529-0.024,2.329-0.074
	c0.177,0.124,0.22,0.54,0.043,0.712l-0.511,0.121c-0.42,0.1-0.797,0.172-0.953,0.563c-0.312,0.764-0.312,2.894-0.312,4.832V13.93z
	 M23.466,5.447c0-2.6,0.201-2.672,1.243-2.822l0.487-0.071c0.157-0.172,0.137-0.615-0.043-0.712
	c-0.976,0.05-1.975,0.074-2.952,0.074c-1.019,0-2.019-0.024-2.997-0.074c-0.176,0.097-0.196,0.54-0.043,0.712l0.486,0.071
	c1.044,0.15,1.246,0.222,1.246,2.822v9.12c0,2.599-0.202,2.673-1.246,2.819l-0.486,0.074c-0.153,0.172-0.133,0.614,0.043,0.711
	c0.979-0.047,2.021-0.071,2.997-0.071c0.978,0,1.977,0.024,2.952,0.071c0.18-0.097,0.2-0.539,0.043-0.711l-0.487-0.074
	c-1.042-0.146-1.243-0.221-1.243-2.819V5.447z M41.926,10.056c0-4.462-2.624-8.534-7.716-8.534c-4.626,0-7.888,3.704-7.888,8.705
	c0,4.364,2.865,8.264,7.845,8.264C38.618,18.491,41.926,14.887,41.926,10.056 M33.929,2.505c3.499,0,5,4.289,5,7.993
	c0,4.927-2.03,7.013-4.541,7.013c-3.767,0-5.07-4.611-5.07-7.993C29.317,4.295,31.72,2.505,33.929,2.505 M42.33,2.723
	c0.686,0.172,1.128,0.614,1.791,1.669c0.837,1.325,2.249,3.799,3.287,5.444c0.199,0.318,0.247,0.49,0.247,0.614
	c0,0.12-0.133,0.415-0.333,0.71c-1.148,1.645-2.561,3.752-3.047,4.463c-0.859,1.201-1.368,1.52-2.319,1.715l-0.593,0.123
	c-0.112,0.195-0.112,0.539,0.089,0.711c0.702-0.047,1.432-0.071,2.184-0.071c0.906,0,1.809,0.024,2.562,0.071
	c0.195-0.071,0.221-0.539,0.041-0.711l-0.575-0.098c-0.306-0.049-0.569-0.123-0.569-0.295c0-0.171,0.086-0.367,0.286-0.709
	c0.839-1.497,2.098-3.531,3.001-4.855c0.928,1.444,1.59,2.623,2.143,3.504l0.374,0.615c0.485,0.809,0.643,1.176,0.643,1.348
	s-0.175,0.246-0.462,0.32l-0.799,0.17c-0.195,0.148-0.13,0.614,0.045,0.711c1.104-0.047,2.054-0.071,3.141-0.071
	c1.1,0,2.052,0.024,3.107,0.071c0.199-0.125,0.199-0.563,0.045-0.711l-0.55-0.098c-0.863-0.146-1.349-0.443-1.968-1.374
	c-1.015-1.471-2.382-3.726-3.707-5.858c-0.287-0.492-0.352-0.713-0.352-0.835c0-0.099,0.087-0.318,0.326-0.711
	c0.821-1.373,1.833-2.819,2.693-3.998c0.974-1.324,1.327-1.692,2.209-1.885l0.643-0.148c0.155-0.22,0.134-0.588-0.067-0.712
	c-0.792,0.05-1.391,0.074-2.142,0.074c-0.752,0-1.453-0.024-2.32-0.074C51.14,1.99,51.14,2.382,51.34,2.554l0.487,0.121
	c0.352,0.1,0.619,0.148,0.662,0.321c-0.021,0.146-0.111,0.341-0.289,0.636c-0.509,0.834-2.38,3.946-2.913,4.635
	c-0.485-0.689-1.965-3.186-2.517-4.119c-0.442-0.761-0.552-1.031-0.552-1.228c0-0.17,0.286-0.269,0.729-0.318l0.418-0.048
	c0.157-0.172,0.157-0.615-0.043-0.712c-0.619,0.05-1.59,0.074-2.76,0.074c-1.012,0-1.876-0.024-2.873-0.074
	c-0.196,0.097-0.237,0.514-0.062,0.712L42.33,2.723z M62.239,5.447c0-2.6,0.201-2.672,1.242-2.822l0.491-0.071
	c0.155-0.172,0.134-0.615-0.044-0.712c-0.975,0.05-1.976,0.074-2.952,0.074c-1.019,0-2.021-0.024-2.995-0.074
	c-0.175,0.097-0.202,0.54-0.043,0.712l0.486,0.071c1.043,0.15,1.242,0.222,1.242,2.822v9.12c0,2.599-0.199,2.673-1.242,2.819
	l-0.486,0.074c-0.159,0.172-0.132,0.614,0.043,0.711c0.975-0.047,2.021-0.071,2.995-0.071c0.977,0,1.978,0.024,2.952,0.071
	c0.178-0.097,0.199-0.539,0.044-0.711l-0.491-0.074c-1.041-0.146-1.242-0.221-1.242-2.819V5.447z M79.881,8.07
	c0-1.938,0-4.068,0.312-4.832c0.153-0.391,0.532-0.463,0.955-0.563l0.509-0.121c0.178-0.172,0.129-0.588-0.045-0.712
	c-0.799,0.05-1.377,0.074-2.33,0.074c-0.864,0-1.688-0.024-2.552-0.074c-0.222,0.074-0.242,0.54-0.047,0.712l0.512,0.071
	c0.556,0.077,0.91,0.247,1.108,0.613c0.397,0.737,0.422,2.993,0.422,4.832v4.783c0,0.393,0,0.514-0.063,0.587
	c-0.222-0.147-2.286-2.748-3.223-3.875l-2.217-2.646c-0.776-0.934-3.195-4.024-3.573-5.077c-0.53,0.05-1.063,0.074-1.525,0.074
	c-0.558,0-1.779,0.023-2.623-0.074c-0.223,0.074-0.243,0.564-0.09,0.712l0.334,0.071c0.313,0.077,0.934,0.27,1.177,0.492
	c0.755,0.711,0.731,1.103,0.731,3.015v5.813c0,1.936,0,4.068-0.287,4.83c-0.155,0.391-0.555,0.465-0.977,0.563l-0.488,0.123
	c-0.179,0.172-0.136,0.586,0.044,0.711c0.777-0.047,1.377-0.071,2.309-0.071c0.842,0,1.707,0.024,2.527,0.071
	c0.226-0.071,0.244-0.539,0.045-0.711l-0.487-0.074c-0.555-0.072-0.932-0.244-1.13-0.611c-0.378-0.736-0.4-2.991-0.4-4.83V7.163
	c0-1.299,0-1.569,0.067-1.569c0.375,0.368,1.108,1.274,2.527,3.087l5.192,6.548c1.597,2.011,2.24,2.846,2.597,3.36
	c0.27,0.023,0.576-0.074,0.756-0.345c-0.067-0.563-0.067-3.579-0.067-4.315V8.07z M82.213,16.17c-0.676,0-1.213,0.524-1.213,1.178
	c0,0.668,0.537,1.191,1.213,1.191c0.682,0,1.206-0.523,1.206-1.191C83.419,16.694,82.895,16.17,82.213,16.17 M82.213,16.407
	c0.523,0,0.903,0.425,0.903,0.948c0,0.518-0.38,0.933-0.896,0.933c-0.532,0-0.918-0.415-0.918-0.94
	C81.302,16.832,81.688,16.407,82.213,16.407 M82.025,17.491h0.129c0.15,0,0.224,0.058,0.244,0.187
	c0.036,0.137,0.058,0.244,0.094,0.287h0.294c-0.027-0.043-0.05-0.114-0.086-0.295c-0.035-0.156-0.101-0.244-0.215-0.287v-0.014
	c0.144-0.043,0.243-0.143,0.243-0.273c0-0.114-0.05-0.207-0.114-0.258c-0.086-0.05-0.186-0.086-0.409-0.086
	c-0.193,0-0.345,0.015-0.451,0.036v1.177h0.271V17.491z M82.032,16.961c0.029-0.008,0.079-0.016,0.151-0.016
	c0.172,0,0.251,0.072,0.251,0.18c0,0.123-0.122,0.172-0.272,0.172h-0.13V16.961z"/>
</svg>
