<?xml version="1.0" encoding="utf-8"?>
<!DOCTYPE svg PUBLIC "-//W3C//DTD SVG 1.1//EN" "http://www.w3.org/Graphics/SVG/1.1/DTD/svg11.dtd">
<svg version="1.1" id="Warstwa_1" xmlns="http://www.w3.org/2000/svg" xmlns:xlink="http://www.w3.org/1999/xlink" x="0px" y="0px"
	 width="65.201px" height="13.7px" viewBox="0 0 65.201 13.7" enable-background="new 0 0 65.201 13.7" xml:space="preserve">
<path fill="#918D90" d="M1.265,7.195c0.561-0.901,1.799-1.09,2.739-1.09c0.984,0,1.68,0.15,2.318,0.5
	c0.55,0.297,0.827,0.664,0.99,0.912c0.016,0.03,0.02,0.064,0.006,0.096C7.304,7.645,7.279,7.668,7.245,7.678L5.935,8
	C5.892,8.013,5.844,7.993,5.819,7.955c-0.042-0.07-0.168-0.281-0.524-0.461C4.859,7.281,4.299,7.25,4.003,7.25
	c-0.955,0-1.437,0.25-1.437,0.743c0,0.411,0.37,0.526,0.85,0.636L4.264,8.78l1.029,0.184c0.996,0.183,2.011,0.54,2.011,1.816
	c0,1.395-1.129,2.134-3.263,2.134c-1.679,0-2.804-0.552-3.44-1.691c-0.018-0.025-0.019-0.061-0.005-0.091
	c0.013-0.03,0.037-0.053,0.067-0.06l1.254-0.327c0.048-0.011,0.095,0.009,0.119,0.051c0.33,0.605,1.079,0.938,2.112,0.938
	c0.381,0,1.62-0.061,1.62-0.842c0-0.435-0.38-0.564-0.79-0.64l-1.112-0.181c0,0-0.771-0.124-0.772-0.128
	C2.471,9.83,1.009,9.56,1.009,8.104C1.009,7.786,1.104,7.456,1.265,7.195 M32.185,7.195c0.56-0.901,1.799-1.089,2.738-1.089
	c0.984,0,1.678,0.149,2.318,0.5c0.552,0.298,0.827,0.661,0.986,0.912c0.019,0.028,0.02,0.063,0.01,0.094
	c-0.014,0.033-0.041,0.055-0.074,0.064l-1.309,0.326c-0.045,0.01-0.094-0.009-0.117-0.047c-0.043-0.072-0.169-0.282-0.523-0.461
	c-0.438-0.213-0.996-0.243-1.291-0.243c-0.955,0-1.438,0.249-1.438,0.742c0,0.412,0.369,0.527,0.85,0.635l0.85,0.152
	c0,0,1.024,0.184,1.026,0.184c0.994,0.183,2.013,0.54,2.013,1.816c0,1.394-1.131,2.133-3.266,2.133
	c-1.679,0-2.805-0.551-3.441-1.688c-0.016-0.028-0.017-0.063-0.006-0.093c0.016-0.03,0.041-0.053,0.071-0.059l1.255-0.328
	c0.047-0.011,0.094,0.009,0.117,0.051c0.328,0.606,1.081,0.938,2.114,0.938c0.38,0,1.618-0.062,1.618-0.843
	c0-0.434-0.381-0.563-0.787-0.639l-1.115-0.183c0,0-0.77-0.124-0.771-0.126C33.39,9.83,31.927,9.56,31.927,8.105
	C31.927,7.785,32.021,7.455,32.185,7.195 M47.875,6.212c0.066,0,0.114,0.051,0.114,0.114v6.371c0,0.062-0.048,0.111-0.113,0.111
	H46.72c-0.064,0-0.113-0.05-0.113-0.111V6.326c0-0.063,0.049-0.114,0.113-0.114H47.875z M51.665,10.107
	c0.131-0.263,0.964-1.905,1.124-2.223c0.157,0.317,0.975,1.962,1.105,2.223H51.665z M53.45,6.269
	c-0.022-0.037-0.06-0.061-0.101-0.061h-1.082c-0.043,0-0.084,0.024-0.099,0.061l-3.299,6.38c-0.019,0.034-0.019,0.073,0.003,0.109
	c0.02,0.035,0.059,0.054,0.096,0.054h1.271c0.044,0,0.081-0.023,0.1-0.063c0,0,0.66-1.331,0.717-1.444h3.453
	c0.055,0.113,0.715,1.444,0.715,1.444c0.021,0.04,0.059,0.063,0.104,0.063h1.295c0.04,0,0.076-0.019,0.098-0.054
	c0.02-0.036,0.021-0.075,0.002-0.109L53.45,6.269z M64.241,6.212c0.062,0,0.112,0.051,0.112,0.114v6.371
	c0,0.062-0.051,0.111-0.112,0.111h-1.086c-0.032,0-0.062-0.014-0.081-0.034c0,0-3.779-4.167-4.133-4.563v4.485
	c0,0.062-0.053,0.111-0.115,0.111h-1.078c-0.063,0-0.115-0.05-0.115-0.111V6.326c0-0.063,0.053-0.114,0.115-0.114h1.078
	c0.033,0,0.064,0.016,0.085,0.041c0,0,3.765,4.222,4.123,4.621V6.326c0-0.063,0.052-0.114,0.112-0.114H64.241z M45.404,6.212
	c0.063,0,0.113,0.051,0.113,0.114v0.991c0,0.062-0.051,0.112-0.113,0.112h-2.391v5.268c0,0.062-0.049,0.111-0.11,0.111h-1.132
	c-0.062,0-0.111-0.05-0.111-0.111V7.43h-2.389c-0.061,0-0.111-0.051-0.111-0.112V6.326c0-0.063,0.051-0.114,0.111-0.114H45.404z
	 M26.347,10.107c0.133-0.263,0.965-1.905,1.125-2.223c0.16,0.317,0.975,1.962,1.107,2.223H26.347z M28.134,6.269
	c-0.022-0.037-0.059-0.061-0.102-0.061h-1.081c-0.045,0-0.08,0.024-0.099,0.061l-3.299,6.38c-0.02,0.034-0.018,0.073,0.006,0.109
	c0.019,0.035,0.054,0.054,0.096,0.054h1.27c0.043,0,0.082-0.023,0.1-0.063c0,0,0.658-1.331,0.713-1.444h3.453
	c0.057,0.111,0.715,1.444,0.715,1.444c0.021,0.04,0.061,0.063,0.102,0.063h1.299c0.039,0,0.072-0.019,0.095-0.054
	c0.019-0.036,0.022-0.075,0.003-0.109L28.134,6.269z M14.707,6.212c0.064,0,0.115,0.051,0.115,0.114v1.017
	c0,0.063-0.051,0.112-0.115,0.112h-4.524v1.332h4.077c0.059,0,0.109,0.054,0.109,0.114v0.983c0,0.063-0.05,0.113-0.109,0.113h-4.077
	v1.568h4.524c0.064,0,0.115,0.053,0.115,0.113v1.018c0,0.062-0.051,0.111-0.115,0.111H8.938c-0.062,0-0.112-0.05-0.112-0.111V6.326
	c0-0.063,0.05-0.114,0.112-0.114H14.707z M21.416,11.374c-0.263,0.217-0.611,0.236-0.951,0.236h-2.623V9.989h2.623
	c0.279,0,0.666,0,0.928,0.201c0.072,0.06,0.267,0.231,0.267,0.598C21.659,10.895,21.659,11.163,21.416,11.374 M17.842,7.412h2.355
	c0.293,0,0.629,0,0.875,0.153c0.128,0.086,0.283,0.251,0.283,0.548c0,0.197-0.079,0.456-0.307,0.579
	C20.857,8.8,20.583,8.8,20.343,8.8h-2.501V7.412z M22.155,9.305c0.26-0.191,0.584-0.562,0.584-1.256c0-0.427-0.114-0.784-0.351-1.09
	c-0.586-0.747-1.584-0.747-2.183-0.747h-3.607c-0.063,0-0.113,0.051-0.113,0.114v6.371c0,0.062,0.05,0.111,0.113,0.111h3.607
	c0.707,0,1.589,0,2.205-0.524c0.399-0.332,0.632-0.854,0.632-1.422C23.042,10.457,22.914,9.752,22.155,9.305"/>
<path fill="#918D90" d="M13.093,0.876c-0.729,0-1.238,0.516-1.238,1.256c0,0.74,0.509,1.256,1.238,1.256
	c0.717,0,1.238-0.528,1.238-1.256C14.331,1.392,13.822,0.876,13.093,0.876 M14.032,2.132c0,0.574-0.386,0.975-0.939,0.975
	c-0.553,0-0.939-0.401-0.939-0.975c0-0.575,0.386-0.977,0.939-0.977C13.646,1.155,14.032,1.557,14.032,2.132"/>
<path fill="#918D90" d="M7.971,1.583c0-0.431-0.292-0.65-0.868-0.65H6.456V3.33h0.299V2.231h0.335l0.639,1.077L7.74,3.33h0.344
	l-0.68-1.121C7.775,2.144,7.971,1.928,7.971,1.583 M7.669,1.583c0,0.111-0.049,0.369-0.5,0.369H6.754V1.214h0.415
	C7.62,1.214,7.669,1.473,7.669,1.583"/>
<path fill="#918D90" d="M1.674,0.933H0.965v2.396h0.3V2.232h0.458c0.34,0,0.737-0.169,0.737-0.646
	C2.46,0.98,1.858,0.933,1.674,0.933 M2.162,1.586c0,0.33-0.314,0.366-0.449,0.366H1.266V1.214h0.435
	C1.923,1.214,2.162,1.313,2.162,1.586"/>
<polygon fill="#918D90" points="18.344,3.329 18.642,3.329 18.642,2.232 19.732,2.232 19.732,1.952 18.642,1.952 18.642,1.214 
	19.814,1.214 19.814,0.933 18.344,0.933 "/>
<path fill="#918D90" d="M30.053,2.003c-0.276-0.083-0.519-0.155-0.519-0.453c0-0.292,0.258-0.396,0.479-0.396
	c0.179,0,0.312,0.068,0.416,0.211l0.024,0.034l0.256-0.182l-0.025-0.034c-0.154-0.204-0.379-0.308-0.666-0.308
	c-0.377,0-0.781,0.211-0.781,0.675c0,0.504,0.367,0.62,0.692,0.722c0.267,0.084,0.498,0.156,0.498,0.423
	c0,0.242-0.196,0.411-0.476,0.411c-0.22,0-0.391-0.093-0.494-0.269l-0.023-0.038l-0.277,0.185l0.024,0.036
	c0.174,0.244,0.438,0.368,0.786,0.368c0.378,0,0.761-0.238,0.761-0.693C30.729,2.206,30.371,2.098,30.053,2.003"/>
<polygon fill="#918D90" points="24.066,2.232 25.191,2.232 25.191,1.952 24.066,1.952 24.066,1.214 25.267,1.214 25.267,0.934 
	23.767,0.934 23.767,3.329 25.318,3.329 25.318,3.049 24.066,3.049 "/>
<path fill="#918D90" d="M58.136,0.934h-0.279l-1.02,2.336l-0.025,0.06h0.318l0.262-0.614h1.168l0.252,0.614h0.336l-1-2.37
	L58.136,0.934z M58.447,2.436h-0.936l0.477-1.115L58.447,2.436z"/>
<polygon fill="#918D90" points="63.287,3.049 63.287,0.934 62.986,0.934 62.986,3.329 64.365,3.329 64.365,3.049 "/>
<polygon fill="#918D90" points="52.672,2.874 51.333,0.951 51.32,0.934 50.978,0.934 50.978,3.33 51.277,3.33 51.277,1.387 
	52.617,3.311 52.63,3.33 52.972,3.33 52.972,0.934 52.672,0.934 "/>
<path fill="#918D90" d="M35.482,2.003c-0.276-0.083-0.517-0.155-0.517-0.453c0-0.292,0.257-0.396,0.478-0.396
	c0.181,0,0.313,0.068,0.418,0.211l0.024,0.034l0.255-0.182l-0.027-0.034c-0.153-0.204-0.377-0.308-0.664-0.308
	c-0.377,0-0.783,0.211-0.783,0.675c0,0.504,0.369,0.62,0.693,0.722c0.269,0.084,0.5,0.156,0.5,0.423
	c0,0.242-0.196,0.411-0.478,0.411c-0.219,0-0.39-0.093-0.493-0.269l-0.021-0.038l-0.279,0.185l0.025,0.036
	c0.174,0.244,0.438,0.368,0.785,0.368c0.377,0,0.76-0.238,0.76-0.693C36.158,2.206,35.799,2.098,35.482,2.003"/>
<path fill="#918D90" d="M45.728,0.876c-0.729,0-1.238,0.516-1.238,1.256c0,0.728,0.52,1.256,1.238,1.256
	c0.717,0,1.236-0.528,1.236-1.256C46.964,1.392,46.457,0.876,45.728,0.876 M46.667,2.132c0,0.574-0.387,0.975-0.939,0.975
	s-0.939-0.401-0.939-0.975c0-0.575,0.387-0.977,0.939-0.977S46.667,1.557,46.667,2.132"/>
<rect x="40.178" y="0.934" fill="#918D90" width="0.3" height="2.396"/>
</svg>
