<?xml version="1.0" encoding="utf-8"?>
<!DOCTYPE svg PUBLIC "-//W3C//DTD SVG 1.1//EN" "http://www.w3.org/Graphics/SVG/1.1/DTD/svg11.dtd">
<svg version="1.1" id="Warstwa_1" xmlns="http://www.w3.org/2000/svg" xmlns:xlink="http://www.w3.org/1999/xlink" x="0px" y="0px"
	 width="87px" height="24.5px" viewBox="0 0 87 24.5" enable-background="new 0 0 87 24.5" xml:space="preserve">
<path fill="#918D90" d="M4.006,17.33H1.735v5.727h0.899v-2.18h1.364c1.46,0,1.98-0.961,1.98-1.786
	C5.978,18.24,5.459,17.33,4.006,17.33 M3.998,20.035H2.634v-1.856h1.372c0.966,0,1.071,0.644,1.071,0.919
	C5.077,19.318,4.999,20.035,3.998,20.035"/>
<path fill="#918D90" d="M13.605,19.09c0-0.851-0.518-1.761-1.973-1.761H9.265v5.727h0.901v-2.189h1.454l1.1,2.189h1.018
	l-1.217-2.339C13.318,20.4,13.605,19.654,13.605,19.09 M10.167,18.178h1.466c0.961,0,1.065,0.644,1.065,0.919
	c0,0.221-0.078,0.938-1.077,0.938h-1.454V18.178z"/>
<path fill="#918D90" d="M19.503,17.241c-1.634,0-2.82,1.228-2.82,2.916c0,1.761,1.159,2.99,2.82,2.99
	c1.657,0,2.816-1.229,2.816-2.99C22.319,18.468,21.134,17.241,19.503,17.241 M19.503,22.291c-1.14,0-1.904-0.858-1.904-2.134
	c0-1.194,0.8-2.062,1.904-2.062c1.1,0,1.899,0.867,1.899,2.062C21.402,21.432,20.638,22.291,19.503,22.291"/>
<polygon fill="#918D90" points="25.586,23.056 26.486,23.056 26.486,20.599 29.169,20.599 29.169,19.75 26.486,19.75 26.486,18.194 
	29.506,18.194 29.506,17.33 25.586,17.33 "/>
<polygon fill="#918D90" points="33.672,20.562 36.453,20.562 36.453,19.719 33.672,19.719 33.672,18.195 36.75,18.195 36.75,17.33 
	32.773,17.33 32.773,23.056 36.799,23.056 36.799,22.191 33.672,22.191 "/>
<path fill="#918D90" d="M42.133,19.75c-0.781-0.191-1.26-0.336-1.26-0.891c0-0.459,0.419-0.756,1.07-0.756
	c0.477,0,0.938,0.11,1.369,0.326l0.217,0.11l0.383-0.794l-0.214-0.105c-0.535-0.266-1.13-0.4-1.771-0.4
	c-1.183,0-1.979,0.654-1.979,1.627c0,1.266,1.055,1.523,1.9,1.732c0.787,0.191,1.27,0.338,1.27,0.889
	c0,0.691-0.717,0.795-1.146,0.795c-0.543,0-1.106-0.163-1.512-0.438l-0.205-0.137l-0.479,0.741l0.195,0.13
	c0.4,0.274,1.136,0.567,2,0.567c1.527,0,2.071-0.855,2.071-1.658C44.044,20.211,42.989,19.956,42.133,19.75"/>
<path fill="#918D90" d="M49.238,19.75c-0.781-0.189-1.261-0.335-1.261-0.891c0-0.459,0.421-0.756,1.072-0.756
	c0.472,0,0.932,0.11,1.364,0.328l0.223,0.107l0.379-0.793l-0.212-0.105c-0.534-0.266-1.13-0.4-1.772-0.4
	c-1.184,0-1.98,0.654-1.98,1.627c0,1.266,1.057,1.523,1.904,1.732c0.787,0.192,1.269,0.338,1.269,0.889
	c0,0.691-0.719,0.795-1.146,0.795c-0.545,0-1.11-0.163-1.512-0.438l-0.205-0.139l-0.478,0.74l0.19,0.132
	c0.4,0.274,1.135,0.567,2.004,0.567c1.524,0,2.066-0.855,2.066-1.658C51.145,20.21,50.091,19.956,49.238,19.75"/>
<rect x="54.389" y="17.33" fill="#918D90" width="0.902" height="5.727"/>
<path fill="#918D90" d="M61.363,17.241c-1.631,0-2.816,1.228-2.816,2.916c0,1.761,1.16,2.99,2.816,2.99
	c1.662,0,2.82-1.229,2.82-2.99C64.184,18.468,62.998,17.241,61.363,17.241 M61.363,22.291c-1.135,0-1.896-0.858-1.896-2.134
	c0-1.194,0.797-2.062,1.896-2.062c1.105,0,1.904,0.867,1.904,2.062C63.268,21.432,62.506,22.291,61.363,22.291"/>
<polygon fill="#918D90" points="71.068,21.427 68.283,17.329 67.453,17.329 67.453,23.056 68.344,23.056 68.344,18.968 
	71.121,23.056 71.965,23.056 71.965,17.329 71.068,17.329 "/>
<path fill="#918D90" d="M77.133,17.329l-2.201,5.728h0.98l0.523-1.416h2.238l0.529,1.416h0.982l-2.191-5.728H77.133z M78.367,20.804
	h-1.615l0.805-2.16L78.367,20.804z"/>
<polygon fill="#918D90" points="84.057,22.191 84.057,17.329 83.156,17.329 83.156,23.056 85.789,23.056 85.789,22.191 "/>
<polygon fill="#918D90" points="54.641,1.336 44.935,1.336 44.935,3.503 48.683,3.503 48.683,14.117 50.896,14.117 50.896,3.503 
	54.641,3.503 "/>
<polygon fill="#918D90" points="67.828,11.953 62.867,11.953 62.867,8.601 66.414,8.601 66.414,6.432 62.867,6.432 62.867,3.503 
	67.828,3.503 67.828,1.336 60.652,1.336 60.652,14.118 67.828,14.118 "/>
<polygon fill="#918D90" points="76.25,4.549 79.703,7.427 83.186,4.571 83.186,14.118 85.398,14.118 85.398,1.32 83.678,1.333 
	79.709,4.589 75.76,1.325 74.035,1.325 74.035,14.118 76.25,14.118 "/>
<polygon fill="#918D90" points="19.848,14.118 22.061,14.118 22.061,6.363 26.824,2.512 25.505,0.792 20.952,4.472 16.386,0.726 
	15.095,2.467 19.848,6.368 "/>
<path fill="#918D90" d="M33.885,7.867c-0.82-1.072-0.742-2.611,0.239-3.592c0.979-0.98,2.519-1.059,3.593-0.238l1.617-1.618
	c-1.969-1.704-4.949-1.622-6.818,0.248c-1.871,1.869-1.953,4.849-0.248,6.817L33.885,7.867z"/>
<path fill="#918D90" d="M39.221,6.016l-1.619,1.618c0.82,1.072,0.744,2.611-0.237,3.592c-0.981,0.98-2.519,1.059-3.593,0.239
	l-1.617,1.618c1.969,1.704,4.947,1.622,6.818-0.248C40.844,10.963,40.924,7.983,39.221,6.016"/>
<path fill="#918D90" d="M3.828,7.867c-0.82-1.072-0.742-2.611,0.239-3.592c0.981-0.98,2.52-1.059,3.592-0.238l1.62-1.618
	c-1.97-1.704-4.951-1.622-6.821,0.248c-1.87,1.869-1.952,4.849-0.249,6.817L3.828,7.867z"/>
<path fill="#918D90" d="M9.164,6.016L7.547,7.634c0.82,1.072,0.742,2.611-0.239,3.592c-0.982,0.98-2.52,1.059-3.592,0.239
	l-1.619,1.618c1.968,1.704,4.95,1.622,6.819-0.248C10.788,10.963,10.869,7.983,9.164,6.016"/>
</svg>
